<svg xmlns="http://www.w3.org/2000/svg" width="60" height="40" viewBox="0 0 15.875 10.583">
  <path style="line-height:1.25;-inkscape-font-specification:'open sans Bold'" d="M9.422 0c-4.74.024-6.982 1.814-7.45 2.153C-1.252 4.49.216 8.26 1.227 7.38c1.652-1.42 4.132-4.882 8.885-6.123-4.314 1.166-7.357 5.259-8.156 6.288-.798 1.029.127 2.718 2.02 2.981 1.894.264 2.957-.437 3.725-1.1 2.483-2.142 1.512-5.8 6.305-8.96C12.272.126 10.75-.007 9.422 0zm6.453 2.659c-1.56.37-2.842.389-3.952.23-.71.862-1.144 1.729-1.506 2.58 1.51-.42 2.995-.977 4.221-1.705-1.323.97-2.854 1.65-4.397 2.135-.564 1.408-1.001 2.794-2.244 3.867l-.146.125c1.81-.627 4.969-2.336 8.024-7.232z"/>
</svg>
